<svg clip-rule="evenodd" fill-rule="evenodd" stroke-linejoin="round" stroke-miterlimit="1.41421" viewBox="0 0 285 100" xmlns="http://www.w3.org/2000/svg"><g fill-rule="nonzero" transform="translate(-30.0555 -16)"><path d="m117.1 62.45c0-7.38 4.29-11.67 14.34-11.67 3.69-.002 7.367.444 10.95 1.33l-.85 6.59c-3.253-.605-6.551-.939-9.86-1-5.26 0-7 1.82-7 6.11v15.46c0 4.3 1.7 6.11 7 6.11 3.309-.056 6.607-.391 9.86-1l.85 6.6c-3.583.886-7.26 1.332-10.95 1.33-10 0-14.34-4.3-14.34-11.68z"/><path d="m158.72 92.28c-10.1 0-12.82-5.57-12.82-11.62v-7.44c0-6 2.72-11.61 12.82-11.61s12.83 5.56 12.83 11.61v7.44c0 6.05-2.72 11.62-12.83 11.62zm0-24.38c-3.93 0-5.44 1.75-5.44 5.08v7.93c0 3.32 1.51 5.08 5.44 5.08s5.45-1.76 5.45-5.08v-7.91c0-3.35-1.52-5.1-5.45-5.1z"/><path d="m194 91.68v-20.58c0-1.57-.66-2.35-2.36-2.35s-5 1.08-7.68 2.48v20.45h-7.38v-29.47h5.62l.73 2.48c3.677-1.835 7.696-2.884 11.8-3.08 4.9 0 6.65 3.44 6.65 8.71v21.36z"/><path d="m216.56 92.28c-3.455-.058-6.882-.628-10.17-1.69l1-5.63c2.852.818 5.803 1.245 8.77 1.27 3.27 0 3.75-.73 3.75-3 0-1.81-.36-2.72-5.14-3.87-7.2-1.75-8.05-3.57-8.05-9.25 0-5.93 2.61-8.53 11-8.53 2.972-.004 5.934.332 8.83 1l-.73 5.87c-2.674-.491-5.382-.772-8.1-.84-3.21 0-3.75.72-3.75 2.54 0 2.36.18 2.54 4.17 3.57 8.23 2.17 9 3.26 9 9.31.06 5.74-1.69 9.25-10.58 9.25z"/><path d="m239.42 62.21v20.57c0 1.57.67 2.36 2.36 2.36s5-1.09 7.69-2.48v-20.45h7.38v29.47h-5.63l-.73-2.49c-3.671 1.842-7.687 2.895-11.79 3.09-4.9 0-6.66-3.45-6.66-8.71v-21.36z"/><path d="m263.2 91.68v-41.51l7.38-1v42.51z"/><path d="m61.58 78.3c-.003 0-.007 0-.01 0-3.752 0-6.84-3.088-6.84-6.84s3.088-6.84 6.84-6.84c3.749 0 6.835 3.081 6.84 6.83v.03c0 3.741-3.079 6.82-6.82 6.82-.003 0-.007 0-.01 0" fill="#8e134a"/><g fill="#ca2171"><path d="m74.89 74.61c-1.734 0-3.16-1.426-3.16-3.16s1.426-3.16 3.16-3.16 3.16 1.426 3.16 3.16v.01.01c0 1.723-1.417 3.14-3.14 3.14-.007 0-.013 0-.02 0"/><path d="m86.43 77.59c-.373 1.311-1.58 2.222-2.943 2.222-1.679 0-3.06-1.382-3.06-3.06 0-1.679 1.381-3.06 3.06-3.06s3.06 1.381 3.06 3.06c0 .197-.019.394-.057.588 0 .07 0 .15-.06.25"/><path d="m84.2 69.46c-.242.058-.489.087-.738.087-1.733 0-3.16-1.426-3.16-3.16 0-1.733 1.427-3.16 3.16-3.16 1.464 0 2.746 1.017 3.078 2.443.08.406.08.824 0 1.23-.161 1.269-1.117 2.302-2.37 2.56"/><path d="m95.42 77.24c-.335 1.287-1.506 2.192-2.836 2.192-1.607 0-2.93-1.323-2.93-2.93s1.323-2.93 2.93-2.93c1.608 0 2.93 1.323 2.93 2.93 0 .15-.011.3-.034.448-.036.093-.057.191-.06.29"/><path d="m92.85 69.32c-.152.023-.306.034-.459.034-1.701 0-3.1-1.399-3.1-3.1 0-1.7 1.399-3.1 3.1-3.1 1.7 0 3.1 1.4 3.1 3.1 0 .086-.004.171-.011.256-.136 1.421-1.221 2.581-2.63 2.81"/><path d="m90.65 88.16c-.563 1.018-1.638 1.651-2.8 1.651-1.756 0-3.2-1.444-3.2-3.2 0-1.755 1.444-3.2 3.2-3.2 1.755 0 3.2 1.445 3.2 3.2 0 .083-.004.166-.01.249-.021.459-.155.905-.39 1.3"/><path d="m89.51 59.18c-.471.264-1.003.402-1.543.402-1.733 0-3.16-1.426-3.16-3.16 0-1.733 1.427-3.16 3.16-3.16 1.139 0 2.194.616 2.753 1.608.324.552.457 1.195.38 1.83-.087 1.038-.683 1.968-1.59 2.48"/><path d="m61.7 103.24c-17.369-.03-31.645-14.331-31.645-31.7 0-17.39 14.31-31.7 31.7-31.7 6.955 0 13.719 2.288 19.245 6.51l-3.87 5c-4.418-3.375-9.825-5.205-15.385-5.205-13.901 0-25.34 11.439-25.34 25.34s11.439 25.34 25.34 25.34c5.56 0 10.967-1.83 15.385-5.205l3.87 5.11c-5.531 4.253-12.323 6.544-19.3 6.51z"/></g><path d="m125.35 41.45v-5.66h-5.18v5.66h-2.64v-13.59h2.64v5.7h5.18v-5.7h2.65v13.59zm12.32 0h-2.09l-.19-.67c-.9.563-1.939.864-3 .87-1.87 0-2.66-1.23-2.66-2.92 0-2 .9-2.76 3-2.76h2.45v-.97c0-1.09-.31-1.47-1.94-1.47-.951.009-1.898.11-2.83.3l-.41-1.92c1.143-.3 2.319-.455 3.5-.46 3.21 0 4.15 1.08 4.15 3.54zm-2.56-3.71h-1.88c-.84 0-1.07.23-1.07 1s.23 1 1 1c.673-.006 1.333-.181 1.92-.51zm7.89 3.91c-1.194-.018-2.379-.207-3.52-.56l.35-1.88c.977.275 1.985.42 3 .43 1.13 0 1.3-.25 1.3-1s-.12-.91-1.78-1.29c-2.49-.58-2.79-1.18-2.79-3.08s.9-2.83 3.82-2.83c1.029.001 2.056.115 3.06.34l-.26 2c-.925-.163-1.861-.257-2.8-.28-1.11 0-1.3.24-1.3.84 0 .79.06.85 1.44 1.19 2.85.73 3.13 1.09 3.13 3.1s-.54 3.02-3.65 3.02zm11.7-.2v-6.84c0-.53-.23-.79-.82-.79-.932.102-1.836.383-2.66.83v6.8h-2.52v-13.78l2.55.38v4.34c1.165-.569 2.435-.889 3.73-.94 1.7 0 2.31 1.14 2.31 2.89v7.11zm4.71-11.19v-2.4h2.59v2.4zm0 11.19v-9.8h2.59v9.8zm4.6-9.72c0-2.46 1.48-3.89 5-3.89 1.28.003 2.555.154 3.8.45l-.3 2.19c-1.126-.204-2.266-.318-3.41-.34-1.83 0-2.41.6-2.41 2v5.15c0 1.43.58 2 2.41 2 1.139-.006 2.276-.103 3.4-.29l.3 2.2c-1.246.292-2.521.44-3.8.44-3.48 0-5-1.43-5-3.89zm14.4 9.92c-3.5 0-4.44-1.85-4.44-3.87v-2.47c0-2 .94-3.86 4.44-3.86s4.45 1.85 4.45 3.86v2.47c.03 2.02-.92 3.87-4.42 3.87zm0-8.11c-1.36 0-1.88.58-1.88 1.69v2.64c0 1.1.52 1.69 1.88 1.69s1.89-.59 1.89-1.69v-2.64c.03-1.11-.49-1.69-1.86-1.69zm11.65.16c-.938.409-1.843.887-2.71 1.43v6.32h-2.55v-9.8h2.2l.17 1.08c.838-.54 1.742-.97 2.69-1.28zm10.22 4.49c0 2.17-1 3.46-3.38 3.46-.913-.009-1.824-.103-2.72-.28v4l-2.56.38v-14.1h2l.26.82c.943-.66 2.069-1.009 3.22-1 2.06 0 3.15 1.16 3.15 3.4zm-6.1 1.1c.743.162 1.5.253 2.26.27.92 0 1.28-.43 1.28-1.31v-3.46c0-.81-.31-1.25-1.26-1.25-.838.025-1.643.336-2.28.88z"/></g></svg>