<svg clip-rule="evenodd" fill-rule="evenodd" stroke-linejoin="round" stroke-miterlimit="1.41421" viewBox="0 0 190 55" xmlns="http://www.w3.org/2000/svg"><g transform="translate(-91.3271 -.327103)"><path d="m151.28 18.692c0-5.047 2.944-7.944 9.767-7.944 2.57 0 5.187.327 7.476.888l-.56 4.485c-2.243-.42-4.813-.7-6.729-.7-3.598 0-4.72 1.215-4.72 4.158v10.561c0 2.944 1.168 4.159 4.72 4.159 1.916 0 4.486-.28 6.729-.701l.56 4.486c-2.243.561-4.906.888-7.476.888-6.823 0-9.767-2.944-9.767-7.944zm27.477 20.327c-6.869 0-8.738-3.785-8.738-7.898v-5.046c0-4.112 1.869-7.897 8.738-7.897s8.738 3.785 8.738 7.897v5.046c0 4.113-1.822 7.898-8.738 7.898zm0-16.636c-2.664 0-3.692 1.215-3.692 3.458v5.374c0 2.243 1.028 3.458 3.692 3.458s3.692-1.215 3.692-3.458v-5.374c.046-2.243-.982-3.458-3.692-3.458zm23.224 16.215v-14.019c0-1.074-.467-1.588-1.588-1.588-1.215 0-3.412.747-5.234 1.682v13.925h-5.047v-20.047h3.832l.514 1.683c2.523-1.215 5.701-2.103 8.037-2.103 3.318 0 4.533 2.336 4.533 5.934v14.533zm14.533.421c-2.15 0-5.047-.514-6.916-1.169l.701-3.831c1.682.514 3.925.888 5.981.888 2.243 0 2.57-.514 2.57-2.01 0-1.215-.233-1.869-3.504-2.617-4.907-1.215-5.467-2.43-5.467-6.308 0-4.019 1.775-5.794 7.476-5.794 1.869 0 4.299.233 6.028.701l-.514 4.018c-1.542-.28-3.972-.561-5.514-.561-2.196 0-2.57.514-2.57 1.729 0 1.589.14 1.729 2.851 2.43 5.607 1.496 6.121 2.243 6.121 6.355 0 3.786-1.168 6.169-7.243 6.169zm14.766-20.468v14.019c0 1.075.468 1.589 1.589 1.589 1.215 0 3.411-.748 5.234-1.682v-13.926h5.047v20.047h-3.832l-.514-1.682c-2.524 1.215-5.701 2.103-8.038 2.103-3.317 0-4.532-2.337-4.532-5.935v-14.533zm14.533 20.047v-28.271l5.047-.701v28.972" fill-rule="nonzero"/><path d="m115.953 30.327c-2.944 0-5.327-2.383-5.327-5.327s2.383-5.327 5.327-5.327 5.327 2.383 5.327 5.327-2.383 5.327-5.327 5.327" fill="#8c1c59"/><g fill="#c62a71"><path d="m126.327 27.477c-1.355 0-2.477-1.075-2.477-2.477 0-1.355 1.075-2.477 2.477-2.477 1.355 0 2.477 1.075 2.477 2.477 0 1.355-1.122 2.477-2.477 2.477m8.972 2.289c-.327 1.309-1.682 2.103-2.991 1.776-1.308-.327-2.102-1.682-1.775-2.991.327-1.308 1.682-2.102 2.99-1.775 1.262.327 2.056 1.542 1.823 2.803 0 .094 0 .141-.047.187m-1.729-6.308c-1.308.327-2.663-.514-2.944-1.822-.28-1.309.514-2.664 1.823-2.944 1.308-.328 2.663.514 2.944 1.822.046.327.093.654.046.981-.14.935-.841 1.729-1.869 1.963m8.738 6.075c-.233 1.355-1.495 2.243-2.85 2.009s-2.243-1.495-2.009-2.85c.233-1.356 1.495-2.243 2.85-2.01 1.262.234 2.15 1.355 2.056 2.617 0 .047-.047.14-.047.234m-2.009-6.169c-1.355.234-2.617-.7-2.804-2.009-.233-1.355.701-2.617 2.01-2.804 1.355-.233 2.616.701 2.803 2.01.047.233.047.42.047.654-.093 1.028-.934 1.963-2.056 2.149m-1.682 14.673c-.701 1.169-2.15 1.589-3.365.935-1.168-.701-1.588-2.15-.934-3.365.701-1.168 2.149-1.588 3.364-.934.841.467 1.309 1.402 1.215 2.336 0 .374-.093.701-.28 1.028m-.888-22.616c-1.168.654-2.664.233-3.365-.935-.654-1.168-.233-2.664.935-3.365 1.168-.654 2.664-.233 3.365.935.28.467.373.935.28 1.402-.047.841-.514 1.589-1.215 1.963"/><path d="m116.047 49.766c-6.636 0-12.804-2.57-17.477-7.243s-7.243-10.887-7.243-17.476 2.57-12.804 7.243-17.477 10.888-7.243 17.477-7.243c5.467 0 10.654 1.776 15 5.094l-3.038 3.925c-3.458-2.664-7.616-4.066-11.962-4.066-5.281 0-10.234 2.056-13.972 5.795-3.739 3.738-5.748 8.691-5.748 13.972 0 5.28 2.056 10.233 5.794 13.972 3.739 3.738 8.692 5.747 13.972 5.747 4.393 0 8.505-1.402 11.963-4.065l3.037 3.925c-4.392 3.411-9.579 5.14-15.046 5.14z" fill-rule="nonzero"/></g></g></svg>