<svg clip-rule="evenodd" fill-rule="evenodd" stroke-linejoin="round" stroke-miterlimit="1.41421" viewBox="0 0 285 100" xmlns="http://www.w3.org/2000/svg"><g fill-rule="nonzero" transform="translate(-32.28 -16)"><path d="m125 60.47v30.53h-7.45v-40.27h10.17l15.28 30.61v-30.61h7.44v40.27h-10.14z"/><path d="m168.61 91.63c-10.1 0-12.83-5.57-12.83-11.62v-7.44c0-6 2.73-11.61 12.83-11.61s12.82 5.56 12.82 11.61v7.43c0 6.06-2.72 11.63-12.82 11.63zm0-24.38c-3.93 0-5.45 1.75-5.45 5.08v7.93c0 3.32 1.52 5.08 5.45 5.08s5.44-1.76 5.44-5.08v-7.93c0-3.33-1.51-5.08-5.44-5.08z"/><path d="m203.87 91v-20.54c0-1.58-.66-2.36-2.35-2.36s-5 1.09-7.69 2.48v20.42h-7.38v-29.44h5.63l.72 2.44c3.683-1.807 7.701-2.829 11.8-3 2.84 0 4.6 1.15 5.57 3.14 3.674-1.879 7.708-2.95 11.83-3.14 4.9 0 6.66 3.45 6.66 8.71v21.29h-7.36v-20.54c0-1.58-.67-2.36-2.36-2.36-2.705.281-5.322 1.126-7.68 2.48v20.42z"/><path d="m256.56 91h-6.05l-.51-2c-2.611 1.694-5.658 2.597-8.77 2.6-5.39 0-7.69-3.69-7.69-8.77 0-6 2.6-8.29 8.59-8.29h7.08v-3.06c0-3.26-.91-4.41-5.62-4.41-2.746.029-5.483.33-8.17.9l-.91-5.62c3.282-.895 6.668-1.349 10.07-1.35 9.26 0 12 3.26 12 10.65zm-7.38-11.13h-5.44c-2.42 0-3.09.67-3.09 2.91 0 2 .67 3 3 3 1.951-.026 3.864-.546 5.56-1.51z"/><path d="m261.1 71.36c0-6.53 2.9-10.4 9.74-10.4 2.642.024 5.274.309 7.86.85v-12.29l7.38-1v42.48h-5.87l-.72-2.48c-2.689 2.013-5.961 3.098-9.32 3.09-5.93 0-9.07-3.51-9.07-10.23zm17.6-3.36c-2.144-.485-4.332-.749-6.53-.79-2.66 0-3.69 1.27-3.69 3.93v10.45c0 2.42.9 3.75 3.63 3.75 2.44-.088 4.773-1.03 6.59-2.66z"/><path d="m61.83 36.82-29.55 17.07 19.94 11.71 4.03-2.46 9.8 5.47v-11.36l9.39-5.64v11.38l16.43-9.11v-.04z" fill="#00bc7f"/><path d="m75.44 62.99v11.3l-7.86 4.54-5.5-3.41v29.49l.15.01 29.64-17.03v-34.01h-.55z" fill="#009a69"/><path d="m58.11 73.16v11.34l-8.94 5.67v-22.69l3.39-2.09-20.1-11.51-.18.01v34l29.8 17.02v-29.49z" fill="#00bc7f"/><path d="m125.45 40.86v-5.65h-5.18v5.65h-2.64v-13.58h2.64v5.72h5.18v-5.72h2.64v13.58zm12.32 0h-2.09l-.19-.66c-.902.557-1.94.854-3 .86-1.87 0-2.66-1.23-2.66-2.92 0-2 .9-2.75 3-2.75h2.46v-1c0-1.09-.32-1.47-1.95-1.47-.951.009-1.898.11-2.83.3l-.32-1.87c1.143-.3 2.319-.455 3.5-.46 3.21 0 4.15 1.09 4.15 3.54zm-2.55-3.7h-1.89c-.84 0-1.07.22-1.07 1s.23 1 1 1c.674-.01 1.336-.182 1.93-.5zm7.91 3.9c-1.194-.018-2.379-.207-3.52-.56l.35-1.87c.978.267 1.986.408 3 .42 1.13 0 1.3-.24 1.3-1s-.12-.9-1.78-1.29c-2.49-.58-2.79-1.18-2.79-3.07s.9-2.84 3.82-2.84c1.029.001 2.056.115 3.06.34l-.25 1.95c-.928-.163-1.868-.256-2.81-.28-1.11 0-1.3.24-1.3.85 0 .78.06.84 1.44 1.18 2.85.73 3.13 1.09 3.13 3.1s-.57 3.07-3.65 3.07zm11.7-.2v-6.86c0-.53-.23-.79-.81-.79-.935.105-1.841.386-2.67.83v6.8h-2.55v-13.76l2.55.39v4.33c1.165-.568 2.435-.888 3.73-.94 1.7 0 2.31 1.15 2.31 2.9v7.1zm4.71-11.19v-2.39h2.55v2.39zm0 11.19v-9.8h2.55v9.8zm4.6-9.72c0-2.45 1.48-3.88 5-3.88 1.279 0 2.554.148 3.8.44l-.3 2.19c-1.126-.204-2.266-.318-3.41-.34-1.83 0-2.41.6-2.41 2v5.15c0 1.43.58 2 2.41 2 1.144-.021 2.285-.138 3.41-.35l.3 2.2c-1.246.292-2.521.44-3.8.44-3.48 0-5-1.43-5-3.88zm14.41 9.92c-3.5 0-4.45-1.85-4.45-3.86v-2.48c0-2 1-3.86 4.45-3.86s4.45 1.85 4.45 3.86v2.48c0 2.01-.95 3.86-4.45 3.86zm0-8.11c-1.37 0-1.89.59-1.89 1.69v2.64c0 1.1.52 1.69 1.89 1.69s1.88-.59 1.88-1.69v-2.64c0-1.1-.52-1.64-1.88-1.64zm11.64.16c-.936.413-1.841.891-2.71 1.43v6.32h-2.55v-9.8h2.16l.16 1.09c.835-.548 1.74-.982 2.69-1.29zm10.22 4.49c0 2.17-1 3.46-3.38 3.46-.913-.009-1.824-.103-2.72-.28v4l-2.56.38v-14.1h2l.25.83c.941-.664 2.068-1.014 3.22-1 2.06 0 3.15 1.17 3.15 3.4zm-6.1 1.11c.743.159 1.5.246 2.26.26.93 0 1.28-.42 1.28-1.31v-3.46c0-.81-.31-1.25-1.26-1.25-.839.026-1.645.341-2.28.89z"/></g></svg>