<svg clip-rule="evenodd" fill-rule="evenodd" stroke-linejoin="round" stroke-miterlimit="1.41421" viewBox="0 0 285 100" xmlns="http://www.w3.org/2000/svg"><g fill-rule="nonzero" transform="translate(-30 -16)"><path d="m145 51.23h7.92l-12 40.29h-11.26l-12-40.29h7.93l9.73 33.57z"/><path d="m175 91.52h-6.05l-.54-2c-2.611 1.694-5.658 2.597-8.77 2.6-5.39 0-7.69-3.69-7.69-8.77 0-6 2.61-8.29 8.59-8.29h7.08v-3.06c0-3.27-.91-4.42-5.62-4.42-2.747.032-5.484.337-8.17.91l-.91-5.62c3.289-.914 6.686-1.385 10.1-1.4 9.26 0 12 3.27 12 10.65zm-7.38-11.13h-5.44c-2.42 0-3.09.66-3.09 2.9 0 2.06.67 3 3 3 1.951-.026 3.864-.546 5.56-1.51z"/><path d="m186.57 62.06v20.56c0 1.58.67 2.36 2.36 2.36s5-1.09 7.68-2.48v-20.44h7.39v29.46h-5.62l-.74-2.52c-3.674 1.833-7.689 2.882-11.79 3.08-4.9 0-6.66-3.45-6.66-8.71v-21.31z"/><path d="m207.92 91.52v-41.52l7.38-1v42.52z"/><path d="m237.32 91c-2.083.732-4.272 1.12-6.48 1.15-5.38 0-8.1-2.54-8.1-7.8v-16.42h-4.42v-5.87h4.42v-7.32l7.38-1v8.35h7.56l-.49 5.87h-7.07v15.39c0 1.57.72 2.6 2.66 2.6 1.251-.038 2.492-.239 3.69-.6z"/><path d="m30 39.78 32.2 64.64 32.44-64.64zm36 13h3.75v3.72h-3.75zm-7.46 15h-3.71v-3.78h3.74zm0-5.62h-3.71v-3.78h3.74zm0-5.62h-3.71v-3.78h3.74zm5.62 16.87h-3.71v-3.79h3.74zm0-5.63h-3.71v-3.78h3.74zm0-5.62h-3.71v-3.78h3.74zm0-5.62h-3.71v-3.78h3.74zm1.84 1.84h3.75v3.74h-3.75zm0 9.36v-3.74h3.74v3.74z"/><path d="m125.47 41.35v-5.65h-5.17v5.65h-2.64v-13.58h2.64v5.7h5.17v-5.7h2.65v13.58zm12.33 0h-2.1l-.19-.66c-.901.56-1.939.861-3 .87-1.86 0-2.66-1.23-2.66-2.92 0-2 .9-2.76 3-2.76h2.45v-1c0-1.08-.31-1.46-2-1.46-.951.01-1.898.11-2.83.3l-.31-1.87c1.141-.31 2.318-.468 3.5-.47 3.2 0 4.15 1.09 4.15 3.55zm-2.56-3.7h-1.89c-.83 0-1.06.22-1.06 1s.23 1 1 1c.674-.007 1.337-.179 1.93-.5zm7.91 3.91c-1.194-.022-2.38-.214-3.52-.57l.36-1.87c.978.267 1.986.408 3 .42 1.13 0 1.3-.24 1.3-1s-.13-.91-1.78-1.29c-2.5-.58-2.79-1.19-2.79-3.08s.9-2.84 3.81-2.84c1.03-.001 2.057.116 3.06.35l-.25 1.95c-.928-.164-1.868-.258-2.81-.28-1.11 0-1.3.24-1.3.84 0 .79.07.85 1.45 1.19 2.85.72 3.12 1.08 3.12 3.1s-.57 3.08-3.65 3.08zm11.71-.21v-6.84c0-.52-.23-.78-.82-.78-.931.099-1.834.378-2.66.82v6.8h-2.56v-13.77l2.56.38v4.34c1.164-.572 2.434-.895 3.73-.95 1.7 0 2.31 1.15 2.31 2.9v7.1zm4.7-11.18v-2.4h2.56v2.4zm0 11.18v-9.8h2.56v9.8zm4.6-9.72c0-2.45 1.49-3.88 5-3.88 1.276-.001 2.548.147 3.79.44l-.29 2.2c-1.129-.204-2.273-.318-3.42-.34-1.82 0-2.41.6-2.41 2v5.15c0 1.43.59 2 2.41 2 1.147-.022 2.291-.136 3.42-.34l.29 2.19c-1.242.296-2.514.447-3.79.45-3.48 0-5-1.43-5-3.89zm14.41 9.93c-3.5 0-4.44-1.86-4.44-3.87v-2.47c0-2 .94-3.87 4.44-3.87s4.43 1.85 4.43 3.87v2.47c0 2.01-.93 3.87-4.43 3.87zm0-8.11c-1.36 0-1.89.58-1.89 1.69v2.63c0 1.11.53 1.69 1.89 1.69s1.89-.58 1.89-1.69v-2.63c0-1.14-.53-1.69-1.89-1.69zm11.64.16c-.936.405-1.839.883-2.7 1.43v6.31h-2.51v-9.8h2.16l.17 1.09c.831-.543 1.728-.977 2.67-1.29zm10.22 4.48c0 2.18-1 3.47-3.37 3.47-.914-.012-1.824-.109-2.72-.29v4l-2.56.38v-14.1h2l.25.83c.946-.661 2.076-1.011 3.23-1 2.05 0 3.14 1.17 3.14 3.4zm-6.09 1.11c.743.159 1.5.246 2.26.26.92 0 1.28-.42 1.28-1.31v-3.46c0-.8-.32-1.24-1.26-1.24-.838.025-1.643.336-2.28.88z"/></g></svg>